<svg xmlns="http://www.w3.org/2000/svg" xmlns:xlink="http://www.w3.org/1999/xlink" width="1920" zoomAndPan="magnify" viewBox="0 0 1440 809.999993" height="1080" preserveAspectRatio="xMidYMid meet" version="1.0"><defs><clipPath id="4adf189aa4"><path d="M 458.582031 266.648438 L 920.582031 266.648438 L 920.582031 728.648438 L 458.582031 728.648438 Z M 458.582031 266.648438 " clip-rule="nonzero"/></clipPath></defs><path fill="#231f20" d="M 485.695312 78.097656 C 486 79.386719 486.238281 80.683594 486.414062 81.992188 C 486.589844 83.300781 486.703125 84.617188 486.75 85.9375 C 486.796875 87.257812 486.777344 88.574219 486.695312 89.894531 C 486.613281 91.214844 486.464844 92.523438 486.253906 93.828125 C 486.042969 95.132812 485.765625 96.421875 485.429688 97.699219 C 485.089844 98.976562 484.691406 100.234375 484.226562 101.472656 C 483.765625 102.710938 483.246094 103.921875 482.664062 105.109375 C 482.082031 106.292969 481.445312 107.449219 480.75 108.574219 C 480.054688 109.699219 479.304688 110.785156 478.503906 111.835938 C 477.703125 112.886719 476.851562 113.894531 475.953125 114.859375 C 475.050781 115.828125 474.105469 116.746094 473.113281 117.621094 C 472.125 118.496094 471.089844 119.316406 470.019531 120.089844 C 468.949219 120.863281 467.839844 121.582031 466.699219 122.246094 C 465.554688 122.910156 464.382812 123.515625 463.179688 124.0625 C 461.976562 124.613281 460.753906 125.101562 459.5 125.527344 C 458.25 125.957031 456.984375 126.324219 455.699219 126.625 C 454.410156 126.929688 453.113281 127.167969 451.804688 127.347656 C 450.492188 127.523438 449.179688 127.632812 447.859375 127.679688 C 446.539062 127.726562 445.21875 127.710938 443.898438 127.628906 C 442.578125 127.542969 441.269531 127.398438 439.964844 127.1875 C 438.660156 126.972656 437.367188 126.699219 436.089844 126.359375 C 434.8125 126.023438 433.554688 125.621094 432.316406 125.160156 C 431.078125 124.699219 429.867188 124.175781 428.679688 123.597656 C 427.492188 123.015625 426.335938 122.378906 425.214844 121.683594 C 424.089844 120.988281 423 120.242188 421.949219 119.441406 C 420.902344 118.636719 419.890625 117.789062 418.925781 116.886719 C 417.957031 115.988281 417.035156 115.042969 416.164062 114.050781 C 415.289062 113.058594 414.464844 112.027344 413.691406 110.957031 C 412.917969 109.886719 412.203125 108.777344 411.539062 107.636719 C 410.875 106.492188 410.265625 105.320312 409.71875 104.121094 C 409.167969 102.917969 408.679688 101.691406 408.253906 100.441406 C 407.824219 99.191406 407.457031 97.925781 407.15625 96.640625 C 406.851562 95.355469 406.609375 94.054688 406.433594 92.746094 C 406.257812 91.4375 406.148438 90.121094 406.101562 88.800781 C 406.054688 87.480469 406.070312 86.164062 406.152344 84.84375 C 406.238281 83.527344 406.382812 82.214844 406.59375 80.910156 C 406.808594 79.605469 407.082031 78.316406 407.421875 77.039062 C 407.757812 75.761719 408.160156 74.503906 408.621094 73.265625 C 409.082031 72.027344 409.605469 70.816406 410.1875 69.628906 C 410.765625 68.445312 411.40625 67.289062 412.097656 66.164062 C 412.792969 65.042969 413.542969 63.953125 414.34375 62.902344 C 415.144531 61.855469 415.996094 60.84375 416.898438 59.878906 C 417.796875 58.910156 418.742188 57.992188 419.734375 57.117188 C 420.726562 56.242188 421.757812 55.421875 422.828125 54.648438 C 423.902344 53.875 425.007812 53.15625 426.152344 52.492188 C 427.292969 51.828125 428.464844 51.222656 429.667969 50.675781 C 430.871094 50.125 432.097656 49.636719 433.347656 49.210938 C 434.597656 48.78125 435.867188 48.414062 437.152344 48.113281 C 438.4375 47.808594 439.734375 47.570312 441.046875 47.394531 C 442.355469 47.214844 443.671875 47.105469 444.992188 47.058594 C 446.3125 47.011719 447.632812 47.027344 448.949219 47.113281 C 450.269531 47.195312 451.582031 47.339844 452.886719 47.554688 C 454.191406 47.765625 455.480469 48.039062 456.757812 48.378906 C 458.035156 48.714844 459.292969 49.117188 460.53125 49.578125 C 461.769531 50.039062 462.980469 50.5625 464.167969 51.140625 C 465.355469 51.722656 466.511719 52.359375 467.636719 53.054688 C 468.761719 53.75 469.847656 54.496094 470.898438 55.300781 C 471.949219 56.101562 472.957031 56.953125 473.925781 57.851562 C 474.890625 58.75 475.8125 59.699219 476.6875 60.6875 C 477.558594 61.679688 478.382812 62.710938 479.15625 63.78125 C 479.929688 64.855469 480.648438 65.960938 481.3125 67.101562 C 481.976562 68.246094 482.582031 69.417969 483.128906 70.617188 C 483.679688 71.820312 484.167969 73.046875 484.597656 74.296875 C 485.023438 75.546875 485.390625 76.8125 485.695312 78.097656 Z M 485.695312 78.097656 " fill-opacity="1" fill-rule="nonzero"/><path fill="#231f20" d="M 718.578125 78.089844 C 718.878906 79.375 719.121094 80.671875 719.296875 81.980469 C 719.472656 83.289062 719.585938 84.605469 719.632812 85.925781 C 719.679688 87.246094 719.660156 88.566406 719.578125 89.882812 C 719.496094 91.203125 719.347656 92.511719 719.136719 93.816406 C 718.925781 95.121094 718.648438 96.410156 718.3125 97.6875 C 717.972656 98.964844 717.574219 100.222656 717.109375 101.460938 C 716.648438 102.699219 716.125 103.910156 715.546875 105.097656 C 714.964844 106.285156 714.328125 107.4375 713.632812 108.5625 C 712.9375 109.6875 712.1875 110.773438 711.386719 111.824219 C 710.585938 112.875 709.734375 113.882812 708.835938 114.847656 C 707.933594 115.816406 706.988281 116.738281 705.996094 117.609375 C 705.003906 118.484375 703.972656 119.308594 702.902344 120.078125 C 701.828125 120.851562 700.722656 121.570312 699.578125 122.234375 C 698.4375 122.898438 697.265625 123.503906 696.0625 124.050781 C 694.859375 124.601562 693.632812 125.089844 692.382812 125.519531 C 691.132812 125.945312 689.867188 126.3125 688.578125 126.617188 C 687.292969 126.917969 685.996094 127.160156 684.6875 127.335938 C 683.375 127.511719 682.0625 127.621094 680.742188 127.667969 C 679.417969 127.714844 678.101562 127.699219 676.78125 127.617188 C 675.460938 127.535156 674.152344 127.386719 672.847656 127.175781 C 671.542969 126.964844 670.25 126.6875 668.972656 126.351562 C 667.695312 126.011719 666.4375 125.609375 665.199219 125.148438 C 663.960938 124.6875 662.75 124.167969 661.5625 123.585938 C 660.375 123.003906 659.21875 122.367188 658.097656 121.671875 C 656.972656 120.976562 655.882812 120.230469 654.832031 119.429688 C 653.78125 118.628906 652.773438 117.777344 651.808594 116.875 C 650.839844 115.976562 649.917969 115.03125 649.046875 114.039062 C 648.171875 113.046875 647.347656 112.015625 646.574219 110.945312 C 645.800781 109.875 645.082031 108.765625 644.417969 107.625 C 643.757812 106.484375 643.148438 105.308594 642.601562 104.109375 C 642.050781 102.90625 641.5625 101.679688 641.136719 100.429688 C 640.707031 99.179688 640.339844 97.914062 640.039062 96.628906 C 639.734375 95.34375 639.492188 94.046875 639.316406 92.734375 C 639.140625 91.425781 639.03125 90.113281 638.984375 88.792969 C 638.9375 87.472656 638.953125 86.152344 639.035156 84.832031 C 639.117188 83.515625 639.265625 82.203125 639.476562 80.898438 C 639.6875 79.59375 639.964844 78.304688 640.304688 77.027344 C 640.640625 75.75 641.042969 74.492188 641.503906 73.253906 C 641.964844 72.019531 642.488281 70.804688 643.066406 69.621094 C 643.648438 68.433594 644.289062 67.277344 644.980469 66.152344 C 645.675781 65.03125 646.425781 63.941406 647.226562 62.894531 C 648.027344 61.84375 648.878906 60.832031 649.78125 59.867188 C 650.679688 58.902344 651.625 57.980469 652.617188 57.105469 C 653.609375 56.234375 654.640625 55.410156 655.710938 54.636719 C 656.785156 53.863281 657.890625 53.144531 659.035156 52.480469 C 660.175781 51.820312 661.347656 51.210938 662.550781 50.664062 C 663.753906 50.117188 664.980469 49.625 666.230469 49.199219 C 667.480469 48.769531 668.746094 48.40625 670.035156 48.101562 C 671.320312 47.796875 672.617188 47.558594 673.929688 47.382812 C 675.238281 47.207031 676.554688 47.09375 677.875 47.046875 C 679.195312 47 680.515625 47.019531 681.832031 47.101562 C 683.152344 47.183594 684.464844 47.332031 685.769531 47.542969 C 687.074219 47.753906 688.363281 48.027344 689.640625 48.367188 C 690.917969 48.703125 692.175781 49.105469 693.414062 49.566406 C 694.652344 50.027344 695.863281 50.550781 697.050781 51.132812 C 698.238281 51.710938 699.394531 52.351562 700.519531 53.042969 C 701.640625 53.738281 702.730469 54.488281 703.78125 55.289062 C 704.832031 56.089844 705.839844 56.941406 706.808594 57.839844 C 707.773438 58.742188 708.695312 59.6875 709.570312 60.675781 C 710.441406 61.667969 711.265625 62.699219 712.039062 63.769531 C 712.8125 64.84375 713.53125 65.949219 714.195312 67.089844 C 714.859375 68.234375 715.464844 69.40625 716.011719 70.609375 C 716.5625 71.808594 717.050781 73.035156 717.480469 74.285156 C 717.90625 75.535156 718.273438 76.800781 718.578125 78.089844 Z M 718.578125 78.089844 " fill-opacity="1" fill-rule="nonzero"/><path fill="#231f20" d="M 951.460938 78.078125 C 951.761719 79.363281 952.003906 80.660156 952.179688 81.96875 C 952.355469 83.28125 952.46875 84.59375 952.515625 85.914062 C 952.5625 87.234375 952.542969 88.554688 952.460938 89.871094 C 952.378906 91.191406 952.230469 92.503906 952.019531 93.804688 C 951.808594 95.109375 951.53125 96.402344 951.195312 97.679688 C 950.855469 98.953125 950.453125 100.210938 949.992188 101.449219 C 949.53125 102.6875 949.007812 103.898438 948.429688 105.085938 C 947.847656 106.273438 947.210938 107.429688 946.515625 108.550781 C 945.820312 109.675781 945.070312 110.761719 944.269531 111.8125 C 943.46875 112.863281 942.617188 113.871094 941.714844 114.839844 C 940.816406 115.804688 939.871094 116.726562 938.878906 117.597656 C 937.886719 118.472656 936.855469 119.296875 935.785156 120.070312 C 934.710938 120.839844 933.605469 121.558594 932.460938 122.222656 C 931.320312 122.886719 930.148438 123.492188 928.945312 124.042969 C 927.742188 124.589844 926.515625 125.078125 925.265625 125.507812 C 924.015625 125.933594 922.75 126.300781 921.460938 126.605469 C 920.175781 126.910156 918.878906 127.148438 917.570312 127.324219 C 916.257812 127.5 914.945312 127.613281 913.621094 127.660156 C 912.300781 127.707031 910.980469 127.6875 909.664062 127.605469 C 908.34375 127.523438 907.03125 127.375 905.726562 127.164062 C 904.425781 126.953125 903.132812 126.675781 901.855469 126.339844 C 900.578125 126 899.320312 125.601562 898.082031 125.136719 C 896.84375 124.675781 895.632812 124.15625 894.445312 123.574219 C 893.257812 122.992188 892.101562 122.355469 890.976562 121.660156 C 889.855469 120.96875 888.765625 120.21875 887.714844 119.417969 C 886.664062 118.617188 885.65625 117.765625 884.6875 116.863281 C 883.722656 115.964844 882.800781 115.019531 881.925781 114.027344 C 881.054688 113.039062 880.230469 112.007812 879.457031 110.933594 C 878.683594 109.863281 877.964844 108.757812 877.300781 107.613281 C 876.636719 106.472656 876.03125 105.300781 875.484375 104.097656 C 874.933594 102.894531 874.445312 101.671875 874.015625 100.421875 C 873.589844 99.171875 873.222656 97.902344 872.917969 96.617188 C 872.617188 95.332031 872.375 94.035156 872.199219 92.726562 C 872.023438 91.414062 871.910156 90.101562 871.863281 88.78125 C 871.816406 87.460938 871.835938 86.140625 871.917969 84.824219 C 872 83.503906 872.148438 82.191406 872.359375 80.886719 C 872.570312 79.585938 872.847656 78.292969 873.183594 77.015625 C 873.523438 75.738281 873.921875 74.484375 874.386719 73.246094 C 874.847656 72.007812 875.371094 70.796875 875.949219 69.609375 C 876.53125 68.421875 877.167969 67.265625 877.863281 66.144531 C 878.558594 65.019531 879.308594 63.933594 880.109375 62.882812 C 880.910156 61.832031 881.761719 60.824219 882.660156 59.855469 C 883.5625 58.890625 884.507812 57.96875 885.5 57.09375 C 886.492188 56.222656 887.523438 55.398438 888.59375 54.625 C 889.667969 53.851562 890.773438 53.136719 891.917969 52.472656 C 893.058594 51.808594 894.230469 51.203125 895.433594 50.652344 C 896.636719 50.105469 897.863281 49.617188 899.113281 49.1875 C 900.363281 48.761719 901.628906 48.394531 902.917969 48.089844 C 904.203125 47.785156 905.5 47.546875 906.808594 47.371094 C 908.121094 47.195312 909.433594 47.082031 910.753906 47.035156 C 912.078125 46.988281 913.394531 47.007812 914.714844 47.089844 C 916.035156 47.171875 917.347656 47.320312 918.648438 47.53125 C 919.953125 47.742188 921.246094 48.019531 922.523438 48.355469 C 923.800781 48.695312 925.058594 49.09375 926.296875 49.554688 C 927.535156 50.019531 928.746094 50.539062 929.933594 51.121094 C 931.121094 51.703125 932.277344 52.339844 933.402344 53.035156 C 934.523438 53.726562 935.613281 54.476562 936.664062 55.277344 C 937.714844 56.078125 938.722656 56.929688 939.6875 57.828125 C 940.65625 58.730469 941.578125 59.675781 942.449219 60.667969 C 943.324219 61.65625 944.148438 62.6875 944.921875 63.761719 C 945.695312 64.832031 946.414062 65.9375 947.078125 67.082031 C 947.742188 68.222656 948.347656 69.394531 948.894531 70.597656 C 949.445312 71.796875 949.933594 73.023438 950.363281 74.273438 C 950.789062 75.523438 951.15625 76.792969 951.460938 78.078125 Z M 951.460938 78.078125 " fill-opacity="1" fill-rule="nonzero"/><g clip-path="url(#4adf189aa4)"><path fill="#231f20" d="M 667.445312 266.660156 L 712.070312 266.660156 C 721.359375 266.660156 728.886719 274.191406 728.886719 283.480469 L 728.886719 403.390625 L 813.652344 318.589844 C 820.21875 312.019531 830.867188 312.019531 837.4375 318.589844 L 868.972656 350.125 C 875.539062 356.691406 875.542969 367.339844 868.976562 373.90625 L 784.207031 458.714844 L 904.117188 458.714844 C 913.40625 458.714844 920.9375 466.246094 920.9375 475.53125 L 920.9375 520.113281 C 920.9375 529.402344 913.40625 536.929688 904.117188 536.929688 L 784.207031 536.929688 L 868.976562 621.738281 C 875.542969 628.304688 875.539062 638.949219 868.972656 645.519531 L 837.4375 677.054688 C 830.867188 683.625 820.214844 683.625 813.652344 677.054688 L 728.886719 592.253906 L 728.886719 712.164062 C 728.886719 721.453125 721.355469 728.984375 712.070312 728.984375 L 667.445312 728.984375 C 658.15625 728.984375 650.628906 721.453125 650.628906 712.164062 L 650.628906 592.253906 L 565.859375 677.058594 C 559.292969 683.628906 548.648438 683.632812 542.078125 677.066406 L 510.507812 645.523438 C 503.9375 638.953125 503.933594 628.304688 510.503906 621.734375 L 595.304688 536.933594 L 475.394531 536.933594 C 466.105469 536.933594 458.574219 529.402344 458.574219 520.117188 L 458.574219 475.535156 C 458.574219 466.246094 466.105469 458.71875 475.394531 458.71875 L 595.304688 458.71875 L 510.503906 373.910156 C 503.933594 367.34375 503.9375 356.691406 510.507812 350.125 L 542.078125 318.578125 C 548.648438 312.015625 559.292969 312.015625 565.859375 318.585938 L 650.628906 403.394531 L 650.628906 283.480469 C 650.628906 274.191406 658.15625 266.660156 667.445312 266.660156 Z M 667.445312 266.660156 " fill-opacity="1" fill-rule="evenodd"/></g></svg>