<svg xmlns="http://www.w3.org/2000/svg" xmlns:xlink="http://www.w3.org/1999/xlink" width="1920" zoomAndPan="magnify" viewBox="0 0 1440 809.999993" height="1080" preserveAspectRatio="xMidYMid meet" version="1.0"><defs><clipPath id="c57349026f"><path d="M 462 33.507812 L 712 33.507812 L 712 728 L 462 728 Z M 462 33.507812 " clip-rule="nonzero"/></clipPath><clipPath id="db3a2368bd"><path d="M 645 34 L 895 34 L 895 728.757812 L 645 728.757812 Z M 645 34 " clip-rule="nonzero"/></clipPath><clipPath id="e433cf5418"><path d="M 852 284 L 1049.761719 284 L 1049.761719 483 L 852 483 Z M 852 284 " clip-rule="nonzero"/></clipPath><clipPath id="dcec4776b4"><path d="M 309.511719 284 L 507 284 L 507 483 L 309.511719 483 Z M 309.511719 284 " clip-rule="nonzero"/></clipPath></defs><g clip-path="url(#c57349026f)"><path fill="#5f110d" d="M 711.199219 380.890625 C 617.839844 428.792969 603.894531 467.617188 586.691406 727.839844 C 569.492188 467.617188 555.585938 428.792969 462.1875 380.890625 C 555.546875 332.984375 569.492188 294.164062 586.691406 33.941406 C 603.894531 294.121094 617.839844 332.984375 711.199219 380.890625 Z M 711.199219 380.890625 " fill-opacity="1" fill-rule="nonzero"/></g><g clip-path="url(#db3a2368bd)"><path fill="#5f110d" d="M 894.457031 381.855469 C 801.101562 429.757812 787.15625 468.582031 769.953125 728.804688 C 752.753906 468.582031 738.847656 429.757812 645.449219 381.855469 C 738.808594 333.949219 752.753906 295.128906 769.953125 34.90625 C 787.15625 295.085938 801.058594 333.949219 894.457031 381.855469 Z M 894.457031 381.855469 " fill-opacity="1" fill-rule="nonzero"/></g><g clip-path="url(#e433cf5418)"><path fill="#5f110d" d="M 1049.546875 383.261719 C 975.480469 396.886719 964.425781 407.9375 950.804688 482.003906 C 937.179688 407.9375 926.128906 396.886719 852.058594 383.261719 C 926.125 369.636719 937.179688 358.585938 950.804688 284.515625 C 964.425781 358.585938 975.480469 369.636719 1049.546875 383.261719 Z M 1049.546875 383.261719 " fill-opacity="1" fill-rule="nonzero"/></g><g clip-path="url(#dcec4776b4)"><path fill="#5f110d" d="M 507 383.261719 C 432.929688 396.886719 421.878906 407.9375 408.253906 482.003906 C 394.628906 407.9375 383.578125 396.886719 309.511719 383.261719 C 383.578125 369.636719 394.628906 358.585938 408.253906 284.515625 C 421.878906 358.585938 432.929688 369.636719 507 383.261719 Z M 507 383.261719 " fill-opacity="1" fill-rule="nonzero"/></g></svg>