<svg xmlns="http://www.w3.org/2000/svg" xmlns:xlink="http://www.w3.org/1999/xlink" width="520" zoomAndPan="magnify" viewBox="0 0 390 82.499998" height="110" preserveAspectRatio="xMidYMid meet" version="1.0"><defs><g/></defs><g fill="#000000" fill-opacity="1"><g transform="translate(20.067532, 62.063683)"><g><path d="M 22.203125 -25.546875 C 19.984375 -25.546875 18.070312 -24.722656 16.46875 -23.078125 C 14.875 -21.429688 14.078125 -19.453125 14.078125 -17.140625 C 14.078125 -14.785156 14.875 -12.785156 16.46875 -11.140625 C 18.070312 -9.492188 19.984375 -8.671875 22.203125 -8.671875 C 23.273438 -8.671875 24.285156 -8.800781 25.234375 -9.0625 C 26.191406 -9.332031 26.894531 -9.601562 27.34375 -9.875 L 27.9375 -10.265625 L 31.9375 -2.0625 C 31.625 -1.84375 31.191406 -1.566406 30.640625 -1.234375 C 30.085938 -0.898438 28.820312 -0.445312 26.84375 0.125 C 24.863281 0.707031 22.738281 1 20.46875 1 C 15.445312 1 11.035156 -0.765625 7.234375 -4.296875 C 3.429688 -7.835938 1.53125 -12.070312 1.53125 -17 C 1.53125 -21.976562 3.429688 -26.257812 7.234375 -29.84375 C 11.035156 -33.425781 15.445312 -35.21875 20.46875 -35.21875 C 22.738281 -35.21875 24.828125 -34.945312 26.734375 -34.40625 C 28.648438 -33.875 30.007812 -33.34375 30.8125 -32.8125 L 31.9375 -32.015625 L 27.9375 -23.9375 C 26.46875 -25.007812 24.554688 -25.546875 22.203125 -25.546875 Z M 22.203125 -25.546875 "/></g></g></g><g fill="#000000" fill-opacity="1"><g transform="translate(46.537597, 62.063683)"><g><path d="M 7.234375 -4.0625 C 3.429688 -7.445312 1.53125 -11.785156 1.53125 -17.078125 C 1.53125 -22.367188 3.507812 -26.710938 7.46875 -30.109375 C 11.425781 -33.515625 16.316406 -35.21875 22.140625 -35.21875 C 27.878906 -35.21875 32.710938 -33.503906 36.640625 -30.078125 C 40.578125 -26.648438 42.546875 -22.3125 42.546875 -17.0625 C 42.546875 -11.820312 40.625 -7.5 36.78125 -4.09375 C 32.9375 -0.695312 28.054688 1 22.140625 1 C 16.003906 1 11.035156 -0.6875 7.234375 -4.0625 Z M 16.375 -22.875 C 14.84375 -21.363281 14.078125 -19.425781 14.078125 -17.0625 C 14.078125 -14.707031 14.804688 -12.785156 16.265625 -11.296875 C 17.734375 -9.804688 19.671875 -9.0625 22.078125 -9.0625 C 24.390625 -9.0625 26.289062 -9.816406 27.78125 -11.328125 C 29.269531 -12.847656 30.015625 -14.765625 30.015625 -17.078125 C 30.015625 -19.429688 29.242188 -21.363281 27.703125 -22.875 C 26.171875 -24.382812 24.296875 -25.140625 22.078125 -25.140625 C 19.804688 -25.140625 17.90625 -24.382812 16.375 -22.875 Z M 16.375 -22.875 "/></g></g></g><g fill="#000000" fill-opacity="1"><g transform="translate(84.343232, 62.063683)"><g><path d="M 4 0 L 4 -34.203125 L 15.8125 -34.203125 L 15.8125 -30.609375 L 15.9375 -30.609375 C 19.007812 -33.679688 22.273438 -35.21875 25.734375 -35.21875 C 27.429688 -35.21875 29.113281 -34.992188 30.78125 -34.546875 C 32.445312 -34.097656 34.046875 -33.40625 35.578125 -32.46875 C 37.109375 -31.539062 38.351562 -30.21875 39.3125 -28.5 C 40.269531 -26.789062 40.75 -24.804688 40.75 -22.546875 L 40.75 0 L 28.9375 0 L 28.9375 -19.34375 C 28.9375 -21.113281 28.367188 -22.664062 27.234375 -24 C 26.109375 -25.34375 24.632812 -26.015625 22.8125 -26.015625 C 21.03125 -26.015625 19.414062 -25.320312 17.96875 -23.9375 C 16.53125 -22.5625 15.8125 -21.03125 15.8125 -19.34375 L 15.8125 0 Z M 4 0 "/></g></g></g><g fill="#000000" fill-opacity="1"><g transform="translate(122.148867, 62.063683)"><g><path d="M 6.328125 -4.234375 C 3.128906 -7.722656 1.53125 -12 1.53125 -17.0625 C 1.53125 -22.132812 3.128906 -26.425781 6.328125 -29.9375 C 9.535156 -33.457031 13.609375 -35.21875 18.546875 -35.21875 C 23.078125 -35.21875 26.8125 -33.789062 29.75 -30.9375 L 29.75 -57.34375 L 41.546875 -57.34375 L 41.546875 0 L 29.875 0 L 29.875 -3.875 L 29.75 -3.875 C 26.8125 -0.625 23.078125 1 18.546875 1 C 13.609375 1 9.535156 -0.742188 6.328125 -4.234375 Z M 16.375 -22.875 C 14.84375 -21.363281 14.078125 -19.425781 14.078125 -17.0625 C 14.078125 -14.707031 14.804688 -12.785156 16.265625 -11.296875 C 17.734375 -9.804688 19.671875 -9.0625 22.078125 -9.0625 C 24.390625 -9.0625 26.289062 -9.816406 27.78125 -11.328125 C 29.269531 -12.847656 30.015625 -14.765625 30.015625 -17.078125 C 30.015625 -19.429688 29.242188 -21.363281 27.703125 -22.875 C 26.171875 -24.382812 24.296875 -25.140625 22.078125 -25.140625 C 19.804688 -25.140625 17.90625 -24.382812 16.375 -22.875 Z M 16.375 -22.875 "/></g></g></g><g fill="#000000" fill-opacity="1"><g transform="translate(161.42146, 62.063683)"><g><path d="M 6.328125 -4.234375 C 3.128906 -7.722656 1.53125 -12 1.53125 -17.0625 C 1.53125 -22.132812 3.128906 -26.425781 6.328125 -29.9375 C 9.535156 -33.457031 13.609375 -35.21875 18.546875 -35.21875 C 23.078125 -35.21875 26.8125 -33.789062 29.75 -30.9375 L 29.75 -34.203125 L 41.546875 -34.203125 L 41.546875 0 L 29.875 0 L 29.875 -3.875 L 29.75 -3.875 C 26.8125 -0.625 23.078125 1 18.546875 1 C 13.609375 1 9.535156 -0.742188 6.328125 -4.234375 Z M 16.375 -22.875 C 14.84375 -21.363281 14.078125 -19.425781 14.078125 -17.0625 C 14.078125 -14.707031 14.804688 -12.785156 16.265625 -11.296875 C 17.734375 -9.804688 19.671875 -9.0625 22.078125 -9.0625 C 24.390625 -9.0625 26.289062 -9.816406 27.78125 -11.328125 C 29.269531 -12.847656 30.015625 -14.765625 30.015625 -17.078125 C 30.015625 -19.429688 29.242188 -21.363281 27.703125 -22.875 C 26.171875 -24.382812 24.296875 -25.140625 22.078125 -25.140625 C 19.804688 -25.140625 17.90625 -24.382812 16.375 -22.875 Z M 16.375 -22.875 "/></g></g></g><g fill="#000000" fill-opacity="1"><g transform="translate(200.69406, 62.063683)"><g><path d="M 4 0 L 4 -34.203125 L 15.8125 -34.203125 L 15.8125 -30.609375 L 15.9375 -30.609375 C 19.007812 -33.679688 22.273438 -35.21875 25.734375 -35.21875 C 27.429688 -35.21875 29.113281 -34.992188 30.78125 -34.546875 C 32.445312 -34.097656 34.046875 -33.40625 35.578125 -32.46875 C 37.109375 -31.539062 38.351562 -30.21875 39.3125 -28.5 C 40.269531 -26.789062 40.75 -24.804688 40.75 -22.546875 L 40.75 0 L 28.9375 0 L 28.9375 -19.34375 C 28.9375 -21.113281 28.367188 -22.664062 27.234375 -24 C 26.109375 -25.34375 24.632812 -26.015625 22.8125 -26.015625 C 21.03125 -26.015625 19.414062 -25.320312 17.96875 -23.9375 C 16.53125 -22.5625 15.8125 -21.03125 15.8125 -19.34375 L 15.8125 0 Z M 4 0 "/></g></g></g><g fill="#000000" fill-opacity="1"><g transform="translate(238.499703, 62.063683)"><g><path d="M 2.46875 8.40625 L 12.140625 3.671875 C 13.910156 6.597656 17 8.0625 21.40625 8.0625 C 23.445312 8.0625 25.347656 7.40625 27.109375 6.09375 C 28.867188 4.789062 29.75 2.78125 29.75 0.0625 L 29.75 -2.46875 C 27.65625 -0.15625 23.921875 1 18.546875 1 C 13.609375 1 9.535156 -0.742188 6.328125 -4.234375 C 3.128906 -7.722656 1.53125 -12 1.53125 -17.0625 C 1.53125 -22.132812 3.128906 -26.425781 6.328125 -29.9375 C 9.535156 -33.457031 13.609375 -35.21875 18.546875 -35.21875 C 22.941406 -35.21875 26.609375 -33.859375 29.546875 -31.140625 L 29.75 -31.140625 L 29.75 -34.203125 L 41.546875 -34.203125 L 41.546875 0.9375 C 41.546875 6.488281 39.695312 10.773438 36 13.796875 C 32.3125 16.828125 27.445312 18.34375 21.40625 18.34375 C 11.625 18.34375 5.3125 15.03125 2.46875 8.40625 Z M 16.375 -22.875 C 14.84375 -21.363281 14.078125 -19.425781 14.078125 -17.0625 C 14.078125 -14.707031 14.804688 -12.785156 16.265625 -11.296875 C 17.734375 -9.804688 19.671875 -9.0625 22.078125 -9.0625 C 24.390625 -9.0625 26.289062 -9.816406 27.78125 -11.328125 C 29.269531 -12.847656 30.015625 -14.765625 30.015625 -17.078125 C 30.015625 -19.429688 29.242188 -21.363281 27.703125 -22.875 C 26.171875 -24.382812 24.296875 -25.140625 22.078125 -25.140625 C 19.804688 -25.140625 17.90625 -24.382812 16.375 -22.875 Z M 16.375 -22.875 "/></g></g></g><g fill="#000000" fill-opacity="1"><g transform="translate(277.772288, 62.063683)"><g><path d="M 6.328125 -4.234375 C 3.128906 -7.722656 1.53125 -12 1.53125 -17.0625 C 1.53125 -22.132812 3.128906 -26.425781 6.328125 -29.9375 C 9.535156 -33.457031 13.609375 -35.21875 18.546875 -35.21875 C 23.078125 -35.21875 26.8125 -33.789062 29.75 -30.9375 L 29.75 -34.203125 L 41.546875 -34.203125 L 41.546875 0 L 29.875 0 L 29.875 -3.875 L 29.75 -3.875 C 26.8125 -0.625 23.078125 1 18.546875 1 C 13.609375 1 9.535156 -0.742188 6.328125 -4.234375 Z M 16.375 -22.875 C 14.84375 -21.363281 14.078125 -19.425781 14.078125 -17.0625 C 14.078125 -14.707031 14.804688 -12.785156 16.265625 -11.296875 C 17.734375 -9.804688 19.671875 -9.0625 22.078125 -9.0625 C 24.390625 -9.0625 26.289062 -9.816406 27.78125 -11.328125 C 29.269531 -12.847656 30.015625 -14.765625 30.015625 -17.078125 C 30.015625 -19.429688 29.242188 -21.363281 27.703125 -22.875 C 26.171875 -24.382812 24.296875 -25.140625 22.078125 -25.140625 C 19.804688 -25.140625 17.90625 -24.382812 16.375 -22.875 Z M 16.375 -22.875 "/></g></g></g><g fill="#000000" fill-opacity="1"><g transform="translate(317.044874, 62.063683)"><g><path d="M 4 0 L 4 -34.203125 L 15.8125 -34.203125 L 15.8125 -30.609375 L 15.9375 -30.609375 C 19.007812 -33.679688 22.273438 -35.21875 25.734375 -35.21875 C 27.429688 -35.21875 29.113281 -34.992188 30.78125 -34.546875 C 32.445312 -34.097656 34.046875 -33.40625 35.578125 -32.46875 C 37.109375 -31.539062 38.351562 -30.21875 39.3125 -28.5 C 40.269531 -26.789062 40.75 -24.804688 40.75 -22.546875 L 40.75 0 L 28.9375 0 L 28.9375 -19.34375 C 28.9375 -21.113281 28.367188 -22.664062 27.234375 -24 C 26.109375 -25.34375 24.632812 -26.015625 22.8125 -26.015625 C 21.03125 -26.015625 19.414062 -25.320312 17.96875 -23.9375 C 16.53125 -22.5625 15.8125 -21.03125 15.8125 -19.34375 L 15.8125 0 Z M 4 0 "/></g></g></g><g fill="#000000" fill-opacity="1"><g transform="translate(354.850516, 62.063683)"><g><path d="M 11.609375 -14.265625 C 13.734375 -14.265625 15.539062 -13.519531 17.03125 -12.03125 C 18.519531 -10.539062 19.265625 -8.734375 19.265625 -6.609375 C 19.265625 -4.515625 18.519531 -2.722656 17.03125 -1.234375 C 15.539062 0.253906 13.734375 1 11.609375 1 C 9.515625 1 7.722656 0.253906 6.234375 -1.234375 C 4.742188 -2.722656 4 -4.515625 4 -6.609375 C 4 -8.734375 4.742188 -10.539062 6.234375 -12.03125 C 7.722656 -13.519531 9.515625 -14.265625 11.609375 -14.265625 Z M 11.609375 -14.265625 "/></g></g></g></svg>